<svg width="1441" height="924" viewBox="0 0 1441 924" fill="none" xmlns="http://www.w3.org/2000/svg">
<mask id="mask0_664_70" style="mask-type:luminance" maskUnits="userSpaceOnUse" x="0" y="0" width="1441" height="924">
<path d="M1117.6 923.256H0V0.000366211H1440.39V382.479C1437.24 379.531 1434.93 375.621 1431.33 373.727C1312.37 311.109 1260.43 155.854 1170.02 70.8737C1136.97 39.8129 1113.01 21.6292 1062.86 0.000366211H210.761L227.507 71.2219C235.459 111.127 253.311 150.893 270.815 180.12C296.295 222.742 331.535 259.652 373.916 285.652C447.572 330.897 538.06 344.477 608.657 394.365C617.541 400.644 625.961 407.379 633.976 414.503V555.249H712.988V653.306H798.422C798.953 654.109 799.486 654.91 800.022 655.711C823.73 691.197 850.691 724.305 880.3 754.885C777.781 756.826 704.484 761.986 704.484 768.045C704.484 774.631 791.029 780.154 907.555 781.637C969.388 839.332 1040.97 886.912 1117.6 923.256Z" fill="white"/>
</mask>
<g mask="url(#mask0_664_70)">
<path d="M1117.6 923.256H0V0.000366211H1440.39V382.479C1437.24 379.531 1434.93 375.621 1431.33 373.727C1312.37 311.109 1260.43 155.854 1170.02 70.8736C1136.97 39.8129 1113.01 21.6291 1062.86 0.000366211H210.761L227.507 71.2219C235.459 111.127 253.311 150.893 270.815 180.12C296.295 222.742 331.535 259.652 373.916 285.652C447.572 330.897 538.06 344.477 608.657 394.365C617.541 400.644 625.961 407.379 633.976 414.503V555.249H712.988V653.306H798.422C798.953 654.109 799.486 654.91 800.022 655.711C823.73 691.197 850.691 724.305 880.3 754.885C777.781 756.826 704.484 761.986 704.484 768.045C704.484 774.631 791.029 780.154 907.555 781.637C969.388 839.332 1040.97 886.912 1117.6 923.256Z" fill="url(#paint0_linear_664_70)" fill-opacity="0.8"/>
</g>
<path d="M1440.39 382.479V923.256H1117.6C990.825 863.131 877.894 772.27 800.021 655.711C739.6 565.247 697.474 457.136 608.655 394.365C538.059 344.477 447.571 330.897 373.915 285.652C331.534 259.652 296.294 222.742 270.814 180.12C253.31 150.893 235.458 111.127 227.506 71.2219L210.76 0.000366211H1062.86C1113.01 21.6292 1136.97 39.8129 1170.02 70.8737C1260.43 155.854 1312.37 311.109 1431.33 373.727C1434.92 375.621 1437.24 379.531 1440.39 382.479Z" fill="#D9D9D9"/>
<defs>
<linearGradient id="paint0_linear_664_70" x1="1440" y1="103.501" x2="-0.95645" y2="921.315" gradientUnits="userSpaceOnUse">
<stop stop-color="#116690"/>
<stop offset="1" stop-color="#0A1C25"/>
</linearGradient>
</defs>
</svg>
