<svg width="1441" height="924" viewBox="0 0 1441 924" fill="none" xmlns="http://www.w3.org/2000/svg">
<mask id="mask0_668_212" style="mask-type:luminance" maskUnits="userSpaceOnUse" x="0" y="-1" width="1441" height="925">
<path d="M1117.6 923.254H0V-0.00158691H1440.39V382.477C1437.24 379.529 1434.93 375.62 1431.33 373.725C1312.37 311.107 1260.43 155.852 1170.02 70.8717C1136.97 39.811 1113.01 21.6272 1062.86 -0.00158691H210.761L227.507 71.2199C235.459 111.125 253.311 150.891 270.815 180.118C296.295 222.74 331.535 259.65 373.916 285.65C447.572 330.895 538.06 344.475 608.657 394.363C617.541 400.642 625.961 407.377 633.976 414.501V555.247H712.988V653.304H798.422C798.953 654.107 799.486 654.908 800.022 655.709C823.73 691.195 850.691 724.303 880.3 754.883C777.781 756.824 704.484 761.984 704.484 768.043C704.484 774.629 791.029 780.152 907.555 781.635C969.388 839.33 1040.97 886.91 1117.6 923.254Z" fill="white"/>
</mask>
<g mask="url(#mask0_668_212)">
<path d="M1117.6 923.254H0V-0.00158691H1440.39V382.477C1437.24 379.529 1434.93 375.62 1431.33 373.725C1312.37 311.107 1260.43 155.852 1170.02 70.8716C1136.97 39.8109 1113.01 21.6271 1062.86 -0.00158691H210.761L227.507 71.2199C235.459 111.125 253.311 150.891 270.815 180.118C296.295 222.74 331.535 259.65 373.916 285.65C447.572 330.895 538.06 344.475 608.657 394.363C617.541 400.642 625.961 407.377 633.976 414.501V555.247H712.988V653.304H798.422C798.953 654.107 799.486 654.908 800.022 655.709C823.73 691.195 850.691 724.303 880.3 754.883C777.781 756.824 704.484 761.984 704.484 768.043C704.484 774.629 791.029 780.152 907.555 781.635C969.388 839.33 1040.97 886.91 1117.6 923.254Z" fill="url(#paint0_linear_668_212)" fill-opacity="0.8"/>
</g>
<path d="M1440.39 382.479V923.256H1117.6C990.825 863.131 877.894 772.27 800.021 655.711C739.6 565.247 697.474 457.136 608.655 394.365C538.059 344.477 447.571 330.897 373.915 285.652C331.534 259.652 296.294 222.742 270.814 180.12C253.31 150.893 235.458 111.127 227.506 71.2219L210.76 0.000366211H1062.86C1113.01 21.6292 1136.97 39.8129 1170.02 70.8737C1260.43 155.854 1312.37 311.109 1431.33 373.727C1434.92 375.621 1437.24 379.531 1440.39 382.479Z" fill="white"/>
<defs>
<linearGradient id="paint0_linear_668_212" x1="1440" y1="103.499" x2="-0.95645" y2="921.313" gradientUnits="userSpaceOnUse">
<stop stop-color="#116690"/>
<stop offset="1" stop-color="#0A1C25"/>
</linearGradient>
</defs>
</svg>
